<?xml version="1.0" standalone="no"?>
<!DOCTYPE svg PUBLIC "-//W3C//DTD SVG 20010904//EN"
 "http://www.w3.org/TR/2001/REC-SVG-20010904/DTD/svg10.dtd">
<svg version="1.0" xmlns="http://www.w3.org/2000/svg"
 width="393.000000pt" height="129.000000pt" viewBox="0 0 393.000000 129.000000"
 preserveAspectRatio="xMidYMid meet">

<g transform="translate(0.000000,129.000000) scale(0.100000,-0.100000)"
fill="#000000" stroke="none">
<path d="M660 1035 c0 -217 4 -237 62 -274 42 -26 29 -27 -22 -1 -51 26 -70
64 -70 140 l0 60 -27 -6 c-102 -23 -224 -113 -273 -200 -44 -80 -48 -90 -57
-119 -6 -24 -21 -36 -74 -62 -81 -38 -111 -76 -117 -148 -10 -120 101 -212
213 -175 31 10 39 10 56 -6 24 -22 24 -34 -1 -34 -37 0 -101 -32 -98 -49 18
-94 858 -94 876 0 3 17 -61 49 -98 49 -26 0 -25 5 10 50 36 46 75 121 89 176
10 37 13 40 40 36 38 -5 75 29 66 61 -4 12 -40 53 -81 91 -105 97 -106 98 -39
140 32 21 57 45 60 58 3 13 4 108 3 213 -4 227 -6 230 -95 135 l-58 -61 -57
12 c-44 9 -68 9 -104 0 l-47 -12 -61 60 c-96 95 -96 96 -96 -134z m79 98 c33
-40 38 -53 19 -53 -6 0 -20 -7 -30 -17 -24 -22 -31 -13 -36 52 -5 66 5 69 47
18z m411 -23 c0 -60 -7 -71 -32 -47 -7 7 -22 16 -32 20 -18 7 -16 11 19 47 22
22 40 40 42 40 2 0 3 -27 3 -60z m-300 -126 c0 -11 -5 -14 -16 -10 -8 3 -25 1
-36 -5 -25 -13 -35 -5 -18 16 17 21 70 20 70 -1z m210 1 c17 -20 7 -29 -18
-16 -10 5 -28 7 -40 4 -21 -5 -29 6 -15 20 12 13 60 7 73 -8z m-110 -90 c0 -2
-9 -9 -20 -15 -16 -8 -26 -7 -42 5 -22 15 -21 15 20 15 23 0 42 -2 42 -5z
m-380 -334 l23 -51 64 0 63 0 0 -68 c0 -75 10 -92 51 -92 45 0 59 23 59 96 l0
64 116 0 116 0 -6 -37 c-18 -100 -115 -222 -211 -264 -142 -63 -307 -34 -416
72 -49 48 -96 134 -106 192 l-6 37 52 0 51 0 0 -43 c0 -52 13 -67 57 -67 44 0
53 21 53 130 0 50 4 89 8 86 4 -2 19 -27 32 -55z m-326 -100 c3 -22 15 -60 25
-84 17 -40 18 -46 4 -51 -29 -11 -52 -6 -82 20 -48 40 -41 110 14 142 30 17
32 15 39 -27z"/>
<path d="M1423 864 c-6 -16 5 -435 12 -442 2 -2 13 -1 24 3 17 5 21 15 21 45
0 32 6 43 33 64 30 24 33 25 45 8 8 -9 25 -41 38 -70 14 -33 29 -52 36 -49 23
7 12 73 -19 124 l-31 50 29 43 c60 90 16 97 -60 10 -29 -33 -57 -60 -62 -60
-5 0 -9 32 -9 70 0 40 -4 70 -10 70 -6 0 -10 32 -10 75 0 61 -3 75 -15 75 -9
0 -18 -7 -22 -16z"/>
<path d="M2105 868 c-3 -7 -6 -44 -7 -83 l-3 -70 -35 -6 c-19 -3 -45 -11 -57
-17 -36 -20 -63 -83 -63 -148 0 -50 3 -59 34 -90 36 -36 70 -43 107 -23 15 7
24 7 35 -1 7 -7 20 -10 28 -7 13 5 14 27 10 129 -11 281 -15 328 -30 328 -8 0
-17 -6 -19 -12z m-19 -222 c26 -20 26 -116 -1 -146 -41 -45 -95 -10 -95 63 0
29 7 46 29 68 34 33 40 34 67 15z"/>
<path d="M2345 870 c-4 -6 -4 -108 0 -226 6 -176 10 -217 22 -221 20 -8 33 14
33 58 0 27 7 40 29 57 35 25 39 22 76 -61 28 -65 55 -77 55 -24 0 20 -13 56
-33 89 l-34 55 29 38 c15 21 28 47 28 57 0 35 -36 18 -88 -42 -29 -33 -57 -60
-62 -60 -5 0 -11 64 -12 142 -3 124 -5 143 -20 146 -9 2 -19 -2 -23 -8z"/>
<path d="M2210 805 c-10 -12 -10 -18 0 -30 7 -8 18 -15 25 -15 7 0 18 7 25 15
10 12 10 18 0 30 -7 8 -18 15 -25 15 -7 0 -18 -7 -25 -15z"/>
<path d="M1729 695 c-50 -27 -65 -134 -30 -212 20 -43 45 -63 81 -63 30 0 96
36 114 62 14 20 14 24 1 37 -12 13 -19 11 -53 -12 -53 -38 -80 -35 -98 8 -19
46 -19 45 19 45 62 0 126 56 112 99 -14 44 -94 64 -146 36z m91 -54 c0 -12
-26 -21 -63 -21 -30 1 -31 1 -13 15 22 16 76 20 76 6z"/>
<path d="M2213 568 c4 -77 9 -143 11 -146 3 -2 12 -2 21 1 12 5 15 29 15 147
l0 140 -27 0 -26 0 6 -142z"/>
<path d="M2606 694 c-10 -26 -7 -156 5 -197 12 -44 41 -77 68 -77 10 0 34 11
54 24 l36 25 6 -30 c5 -20 13 -29 27 -29 19 0 20 4 14 58 -3 31 -9 99 -12 150
-6 79 -9 92 -25 92 -24 0 -27 -14 -21 -101 5 -75 4 -75 -27 -102 -18 -15 -39
-27 -46 -27 -20 0 -35 64 -35 153 0 69 -2 77 -19 77 -10 0 -22 -7 -25 -16z"/>
<path d="M2866 694 c-11 -28 -7 -462 4 -469 6 -4 17 -1 25 5 11 9 15 37 15
110 l0 98 30 -11 c44 -16 107 8 137 52 40 60 19 191 -35 220 -30 16 -98 13
-115 -4 -13 -13 -16 -13 -21 0 -7 20 -32 19 -40 -1z m175 -81 c33 -86 -37
-163 -112 -123 -15 9 -19 22 -19 69 0 58 12 81 50 93 26 8 71 -13 81 -39z"/>
<path d="M3165 684 c-30 -32 -39 -75 -33 -156 4 -51 9 -65 32 -85 31 -26 73
-30 102 -8 26 20 34 19 34 -5 0 -14 7 -20 23 -20 l24 0 -4 138 c-3 75 -6 142
-8 148 -2 7 -31 12 -75 13 -64 1 -73 -1 -95 -25z m104 -40 c21 -15 23 -23 19
-70 -5 -60 -28 -94 -63 -94 -29 0 -42 16 -49 60 -9 48 6 93 35 107 31 16 30
16 58 -3z"/>
</g>
</svg>
